<?xml version="1.0" encoding="utf-8"?>
<!-- Generator: Adobe Illustrator 19.0.0, SVG Export Plug-In . SVG Version: 6.00 Build 0)  -->
<svg version="1.1" xmlns="http://www.w3.org/2000/svg" xmlns:xlink="http://www.w3.org/1999/xlink" x="0px" y="0px"
	 viewBox="0 0 419.3 144.7" style="enable-background:new 0 0 419.3 144.7;" xml:space="preserve">
<style type="text/css">
	.st0{display:none;}
	.st1{fill:#515254;}
</style>
<g id="Layer_1" class="st0">
</g>
<g id="Layer_2">
	<path id="XMLID_34_" class="st1" d="M400.5,90.8c-1,0-2.1-0.5-2.6-1.5L381,62.8l-16.9,26.5c-0.6,0.9-1.5,1.5-2.6,1.5l0,0
		c-1.1,0-2.1-0.6-2.6-1.5L342,62.8l-16.9,26.5c-0.6,0.9-1.5,1.5-2.6,1.5c-1.1,0-2.1-0.6-2.6-1.5L303,62.8l-16.9,26.5
		c-0.6,0.9-1.5,1.5-2.6,1.5l0,0c-1.1,0-2.1-0.6-2.6-1.5L264,62.8l-16.9,26.5c-0.6,0.9-1.5,1.5-2.6,1.5l0,0c-1.1,0-2.1-0.6-2.6-1.5
		L225,62.8l-16.9,26.5c-0.6,0.9-1.5,1.5-2.6,1.5l0,0c-1.1,0-2.1-0.6-2.6-1.5L186,62.8l-16.9,26.5c-0.6,0.9-1.5,1.5-2.6,1.5
		c-1.1,0-2.1-0.6-2.6-1.5L147,62.8l-16.9,26.5c-0.6,0.9-1.5,1.5-2.6,1.5c-1.1,0-2.1-0.6-2.6-1.5L108,62.8L91.2,89.3
		c-0.6,0.9-1.5,1.5-2.6,1.5l0,0c-1.1,0-2.1-0.6-2.6-1.5L69,62.8L52.2,89.3c-0.6,0.9-1.5,1.5-2.6,1.5c-1.1,0-2.1-0.6-2.6-1.5
		l-20-30.6c-0.9-1.5-0.5-3.4,1-4.3c1.5-1,3.4-0.5,4.3,1L49,81.8l16.9-26.5c0.6-0.9,1.5-1.5,2.6-1.5c1.1,0,2.1,0.6,2.6,1.5L88,81.8
		l16.9-26.5c0.6-0.9,1.5-1.5,2.6-1.5c1.1,0,2.1,0.6,2.6,1.5L127,81.8l16.9-26.5c0.6-0.9,1.5-1.5,2.6-1.5c1.1,0,2.1,0.6,2.6,1.5
		L166,81.8l16.9-26.5c0.6-0.9,1.5-1.5,2.6-1.5c1.1,0,2.1,0.6,2.6,1.5L205,81.8l16.9-26.5c0.6-0.9,1.5-1.5,2.6-1.5l0,0
		c1.1,0,2.1,0.6,2.6,1.5L244,81.8l16.9-26.5c0.6-0.9,1.5-1.5,2.6-1.5s2.1,0.6,2.6,1.5L283,81.8l16.9-26.5c0.6-0.9,1.5-1.5,2.6-1.5
		c1.1,0,2.1,0.6,2.6,1.5L322,81.8l16.9-26.5c0.6-0.9,1.5-1.5,2.6-1.5s2.1,0.6,2.6,1.5L361,81.8l16.9-26.5c0.6-0.9,1.5-1.5,2.6-1.5
		c1.1,0,2.1,0.6,2.6,1.5L402.6,86c0.9,1.5,0.5,3.4-1,4.3C401.7,90.6,401.1,90.8,400.5,90.8z"/>
</g>
</svg>
